<svg width="166" height="196" viewBox="0 0 166 196" fill="none" xmlns="http://www.w3.org/2000/svg">
<path d="M14.08 187C14.08 183.416 14.08 179.789 14.08 176.12C14.08 172.451 14.08 168.824 14.08 165.24C15.0187 165.24 15.9573 165.24 16.896 165.24C17.8347 165.24 18.7627 165.24 19.68 165.24C19.68 167.992 19.68 170.776 19.68 173.592C19.68 176.387 19.68 179.16 19.68 181.912C20.8107 181.912 21.952 181.912 23.104 181.912C24.256 181.912 25.3867 181.912 26.496 181.912C26.496 182.744 26.496 183.597 26.496 184.472C26.496 185.325 26.496 186.168 26.496 187C24.448 187 22.3787 187 20.288 187C18.1973 187 16.128 187 14.08 187ZM39.9563 187C39.9563 186.829 39.9563 186.669 39.9563 186.52C39.9563 186.349 39.9563 186.189 39.9563 186.04C39.4229 186.488 38.8149 186.829 38.1323 187.064C37.4709 187.32 36.7563 187.448 35.9883 187.448C34.9003 187.448 33.8763 187.245 32.9163 186.84C31.9563 186.413 31.1029 185.816 30.3563 185.048C29.6309 184.259 29.0549 183.331 28.6283 182.264C28.2229 181.197 28.0203 180.013 28.0203 178.712C28.0203 177.389 28.2229 176.195 28.6283 175.128C29.0549 174.061 29.6309 173.155 30.3563 172.408C31.1029 171.64 31.9563 171.053 32.9163 170.648C33.8763 170.221 34.8896 170.008 35.9563 170.008C36.7243 170.008 37.4496 170.136 38.1323 170.392C38.8149 170.627 39.4229 170.957 39.9563 171.384C39.9563 171.213 39.9563 171.053 39.9563 170.904C39.9563 170.755 39.9563 170.605 39.9563 170.456C40.8309 170.456 41.7163 170.456 42.6123 170.456C43.5083 170.456 44.3829 170.456 45.2362 170.456C45.2362 173.187 45.2362 175.949 45.2362 178.744C45.2362 181.517 45.2362 184.269 45.2362 187C44.3829 187 43.5083 187 42.6123 187C41.7163 187 40.8309 187 39.9563 187ZM36.6923 182.776C37.7163 182.776 38.5376 182.403 39.1563 181.656C39.7749 180.909 40.0843 179.928 40.0843 178.712C40.0843 177.496 39.7749 176.525 39.1563 175.8C38.5376 175.053 37.7163 174.68 36.6923 174.68C35.6469 174.68 34.8149 175.043 34.1963 175.768C33.5989 176.493 33.3003 177.475 33.3003 178.712C33.3003 179.949 33.5989 180.941 34.1963 181.688C34.8149 182.413 35.6469 182.776 36.6923 182.776ZM48.76 187C48.76 184.269 48.76 181.517 48.76 178.744C48.76 175.949 48.76 173.187 48.76 170.456C49.6347 170.456 50.52 170.456 51.416 170.456C52.312 170.456 53.1867 170.456 54.04 170.456C54.04 170.605 54.04 170.744 54.04 170.872C54.04 171 54.04 171.139 54.04 171.288C54.616 170.883 55.256 170.573 55.96 170.36C56.6853 170.125 57.464 170.008 58.296 170.008C59.512 170.008 60.5787 170.285 61.496 170.84C62.4347 171.395 63.16 172.195 63.672 173.24C64.2053 174.264 64.472 175.501 64.472 176.952C64.472 178.616 64.472 180.291 64.472 181.976C64.472 183.661 64.472 185.336 64.472 187C63.6187 187 62.744 187 61.848 187C60.952 187 60.0667 187 59.192 187C59.192 185.464 59.192 183.907 59.192 182.328C59.192 180.749 59.192 179.192 59.192 177.656C59.192 176.803 58.9893 176.12 58.584 175.608C58.2 175.075 57.5813 174.808 56.728 174.808C55.8747 174.808 55.2133 175.053 54.744 175.544C54.2747 176.035 54.04 176.739 54.04 177.656C54.04 179.192 54.04 180.749 54.04 182.328C54.04 183.907 54.04 185.464 54.04 187C53.1867 187 52.312 187 51.416 187C50.52 187 49.6347 187 48.76 187ZM83.2808 184.312C83.2808 186.125 82.8861 187.64 82.0968 188.856C81.3288 190.072 80.2728 190.979 78.9288 191.576C77.5848 192.195 76.0488 192.515 74.3208 192.536C72.6141 192.557 70.8114 192.301 68.9128 191.768C68.9128 190.936 68.9128 190.093 68.9128 189.24C68.9128 188.408 68.9128 187.576 68.9128 186.744C70.5981 187.405 72.1234 187.736 73.4888 187.736C74.8541 187.757 75.9314 187.501 76.7208 186.968C77.5314 186.413 77.9368 185.656 77.9368 184.696C77.9368 184.589 77.9368 184.493 77.9368 184.408C77.9368 184.301 77.9368 184.205 77.9368 184.12C77.4034 184.525 76.7848 184.845 76.0808 185.08C75.3768 185.315 74.6194 185.432 73.8088 185.432C72.4648 185.432 71.2594 185.123 70.1927 184.504C69.1474 183.864 68.3261 182.989 67.7288 181.88C67.1314 180.749 66.8328 179.437 66.8328 177.944C66.8328 176.792 67.0248 175.736 67.4088 174.776C67.7928 173.816 68.3261 172.984 69.0088 172.28C69.6914 171.576 70.4701 171.043 71.3448 170.68C72.2194 170.296 73.1368 170.104 74.0968 170.104C74.8648 170.104 75.5794 170.211 76.2408 170.424C76.9021 170.637 77.4888 170.925 78.0008 171.288C78.0008 171.139 78.0008 171 78.0008 170.872C78.0008 170.744 78.0008 170.605 78.0008 170.456C78.8754 170.456 79.7608 170.456 80.6568 170.456C81.5528 170.456 82.4274 170.456 83.2808 170.456C83.2808 172.739 83.2808 175.053 83.2808 177.4C83.2808 179.725 83.2808 182.029 83.2808 184.312ZM75.1208 180.856C76.0168 180.856 76.7314 180.579 77.2648 180.024C77.8194 179.448 78.0968 178.712 78.0968 177.816C78.0968 176.899 77.8194 176.152 77.2648 175.576C76.7314 175 76.0168 174.712 75.1208 174.712C74.1821 174.712 73.4354 175 72.8808 175.576C72.3261 176.131 72.0488 176.877 72.0488 177.816C72.0488 178.733 72.3261 179.469 72.8808 180.024C73.4354 180.579 74.1821 180.856 75.1208 180.856ZM85.0312 187C86.1406 183.416 87.2499 179.789 88.3593 176.12C89.4899 172.451 90.6099 168.824 91.7193 165.24C92.9779 165.24 94.2473 165.24 95.5273 165.24C96.8286 165.24 98.1086 165.24 99.3673 165.24C100.477 168.824 101.586 172.451 102.695 176.12C103.826 179.789 104.946 183.416 106.055 187C105.138 187 104.199 187 103.239 187C102.301 187 101.362 187 100.423 187C100.21 186.317 100.007 185.635 99.8153 184.952C99.6233 184.248 99.4206 183.555 99.2073 182.872C97.9913 182.872 96.7646 182.872 95.5273 182.872C94.3113 182.872 93.0953 182.872 91.8793 182.872C91.6659 183.555 91.4633 184.248 91.2713 184.952C91.0793 185.635 90.8766 186.317 90.6633 187C89.7459 187 88.8073 187 87.8473 187C86.9086 187 85.9699 187 85.0312 187ZM93.2873 178.104C94.0339 178.104 94.7806 178.104 95.5273 178.104C96.2953 178.104 97.0526 178.104 97.7993 178.104C97.4366 176.845 97.0633 175.576 96.6793 174.296C96.2953 173.016 95.9219 171.747 95.5593 170.488C95.1966 171.747 94.8126 173.016 94.4073 174.296C94.0233 175.576 93.6499 176.845 93.2873 178.104ZM108.303 187C108.303 183.416 108.303 179.789 108.303 176.12C108.303 172.451 108.303 168.824 108.303 165.24C109.241 165.24 110.18 165.24 111.119 165.24C112.057 165.24 112.985 165.24 113.903 165.24C113.903 168.824 113.903 172.451 113.903 176.12C113.903 179.789 113.903 183.416 113.903 187C112.985 187 112.057 187 111.119 187C110.18 187 109.241 187 108.303 187Z" fill="#EEB04D"/>
<path d="M25.9567 108.031L27.5499 38.7975L85.7781 76.1868L25.9567 108.031Z" stroke="#255736" stroke-width="5"/>
<path d="M54.4844 142.571L56.0776 73.3375L114.306 110.727L54.4844 142.571Z" stroke="#255736" stroke-width="5"/>
<path d="M47.808 106.469L49.4012 37.235L107.629 74.6243L47.808 106.469Z" stroke="#255736" stroke-width="5"/>
</svg>
